<svg xmlns="http://www.w3.org/2000/svg" xmlns:xlink="http://www.w3.org/1999/xlink" version="1.1" width="1000" height="1000" viewBox="0 0 1000 1000" xml:space="preserve">
<desc>Created with Fabric.js 3.5.0</desc>
<defs>
</defs>
<rect x="0" y="0" width="100%" height="100%" fill="#ffffff"/>
<g transform="matrix(25.3594 0 0 25.3594 318.9745 325.4467)" id="557252">
<path style="stroke: none; stroke-width: 1; stroke-dasharray: none; stroke-linecap: butt; stroke-dashoffset: 0; stroke-linejoin: miter; stroke-miterlimit: 4; is-custom-font: none; font-file-url: none; fill: rgb(50,108,229); fill-rule: nonzero; opacity: 1;" vector-effect="non-scaling-stroke" transform=" translate(-12.0003, -12)" d="M 10.204 14.35 l 0.007 0.01 l -0.999 2.413 a 5.171 5.171 0 0 1 -2.075 -2.597 l 2.578 -0.437 l 0.004 0.005 a 0.44 0.44 0 0 1 0.484 0.606 z m -0.833 -2.129 a 0.44 0.44 0 0 0 0.173 -0.756 l 0.002 -0.011 L 7.585 9.7 a 5.143 5.143 0 0 0 -0.73 3.255 l 2.514 -0.725 l 0.002 -0.009 z m 1.145 -1.98 a 0.44 0.44 0 0 0 0.699 -0.337 l 0.01 -0.005 l 0.15 -2.62 a 5.144 5.144 0 0 0 -3.01 1.442 l 2.147 1.523 l 0.004 -0.002 z m 0.76 2.75 l 0.723 0.349 l 0.722 -0.347 l 0.18 -0.78 l -0.5 -0.623 h -0.804 l -0.5 0.623 l 0.179 0.779 z m 1.5 -3.095 a 0.44 0.44 0 0 0 0.7 0.336 l 0.008 0.003 l 2.134 -1.513 a 5.188 5.188 0 0 0 -2.992 -1.442 l 0.148 2.615 l 0.002 0.001 z m 10.876 5.97 l -5.773 7.181 a 1.6 1.6 0 0 1 -1.248 0.594 l -9.261 0.003 a 1.6 1.6 0 0 1 -1.247 -0.596 l -5.776 -7.18 a 1.583 1.583 0 0 1 -0.307 -1.34 L 2.1 5.573 c 0.108 -0.47 0.425 -0.864 0.863 -1.073 L 11.305 0.513 a 1.606 1.606 0 0 1 1.385 0 l 8.345 3.985 c 0.438 0.209 0.755 0.604 0.863 1.073 l 2.062 8.955 c 0.108 0.47 -0.005 0.963 -0.308 1.34 z m -3.289 -2.057 c -0.042 -0.01 -0.103 -0.026 -0.145 -0.034 c -0.174 -0.033 -0.315 -0.025 -0.479 -0.038 c -0.35 -0.037 -0.638 -0.067 -0.895 -0.148 c -0.105 -0.04 -0.18 -0.165 -0.216 -0.216 l -0.201 -0.059 a 6.45 6.45 0 0 0 -0.105 -2.332 a 6.465 6.465 0 0 0 -0.936 -2.163 c 0.052 -0.047 0.15 -0.133 0.177 -0.159 c 0.008 -0.09 0.001 -0.183 0.094 -0.282 c 0.197 -0.185 0.444 -0.338 0.743 -0.522 c 0.142 -0.084 0.273 -0.137 0.415 -0.242 c 0.032 -0.024 0.076 -0.062 0.11 -0.089 c 0.24 -0.191 0.295 -0.52 0.123 -0.736 c -0.172 -0.216 -0.506 -0.236 -0.745 -0.045 c -0.034 0.027 -0.08 0.062 -0.111 0.088 c -0.134 0.116 -0.217 0.23 -0.33 0.35 c -0.246 0.25 -0.45 0.458 -0.673 0.609 c -0.097 0.056 -0.239 0.037 -0.303 0.033 l -0.19 0.135 a 6.545 6.545 0 0 0 -4.146 -2.003 l -0.012 -0.223 c -0.065 -0.062 -0.143 -0.115 -0.163 -0.25 c -0.022 -0.268 0.015 -0.557 0.057 -0.905 c 0.023 -0.163 0.061 -0.298 0.068 -0.475 c 0.001 -0.04 -0.001 -0.099 -0.001 -0.142 c 0 -0.306 -0.224 -0.555 -0.5 -0.555 c -0.275 0 -0.499 0.249 -0.499 0.555 l 0.001 0.014 c 0 0.041 -0.002 0.092 0 0.128 c 0.006 0.177 0.044 0.312 0.067 0.475 c 0.042 0.348 0.078 0.637 0.056 0.906 a 0.545 0.545 0 0 1 -0.162 0.258 l -0.012 0.211 a 6.424 6.424 0 0 0 -4.166 2.003 a 8.373 8.373 0 0 1 -0.18 -0.128 c -0.09 0.012 -0.18 0.04 -0.297 -0.029 c -0.223 -0.15 -0.427 -0.358 -0.673 -0.608 c -0.113 -0.12 -0.195 -0.234 -0.329 -0.349 c -0.03 -0.026 -0.077 -0.062 -0.111 -0.088 a 0.594 0.594 0 0 0 -0.348 -0.132 a 0.481 0.481 0 0 0 -0.398 0.176 c -0.172 0.216 -0.117 0.546 0.123 0.737 l 0.007 0.005 l 0.104 0.083 c 0.142 0.105 0.272 0.159 0.414 0.242 c 0.299 0.185 0.546 0.338 0.743 0.522 c 0.076 0.082 0.09 0.226 0.1 0.288 l 0.16 0.143 a 6.462 6.462 0 0 0 -1.02 4.506 l -0.208 0.06 c -0.055 0.072 -0.133 0.184 -0.215 0.217 c -0.257 0.081 -0.546 0.11 -0.895 0.147 c -0.164 0.014 -0.305 0.006 -0.48 0.039 c -0.037 0.007 -0.09 0.02 -0.133 0.03 l -0.004 0.002 l -0.007 0.002 c -0.295 0.071 -0.484 0.342 -0.423 0.608 c 0.061 0.267 0.349 0.429 0.645 0.365 l 0.007 -0.001 l 0.01 -0.003 l 0.129 -0.029 c 0.17 -0.046 0.294 -0.113 0.448 -0.172 c 0.33 -0.118 0.604 -0.217 0.87 -0.256 c 0.112 -0.009 0.23 0.069 0.288 0.101 l 0.217 -0.037 a 6.5 6.5 0 0 0 2.88 3.596 l -0.09 0.218 c 0.033 0.084 0.069 0.199 0.044 0.282 c -0.097 0.252 -0.263 0.517 -0.452 0.813 c -0.091 0.136 -0.185 0.242 -0.268 0.399 c -0.02 0.037 -0.045 0.095 -0.064 0.134 c -0.128 0.275 -0.034 0.591 0.213 0.71 c 0.248 0.12 0.556 -0.007 0.69 -0.282 v -0.002 c 0.02 -0.039 0.046 -0.09 0.062 -0.127 c 0.07 -0.162 0.094 -0.301 0.144 -0.458 c 0.132 -0.332 0.205 -0.68 0.387 -0.897 c 0.05 -0.06 0.13 -0.082 0.215 -0.105 l 0.113 -0.205 a 6.453 6.453 0 0 0 4.609 0.012 l 0.106 0.192 c 0.086 0.028 0.18 0.042 0.256 0.155 c 0.136 0.232 0.229 0.507 0.342 0.84 c 0.05 0.156 0.074 0.295 0.145 0.457 c 0.016 0.037 0.043 0.09 0.062 0.129 c 0.133 0.276 0.442 0.402 0.69 0.282 c 0.247 -0.118 0.341 -0.435 0.213 -0.71 c -0.02 -0.039 -0.045 -0.096 -0.065 -0.134 c -0.083 -0.156 -0.177 -0.261 -0.268 -0.398 c -0.19 -0.296 -0.346 -0.541 -0.443 -0.793 c -0.04 -0.13 0.007 -0.21 0.038 -0.294 c -0.018 -0.022 -0.059 -0.144 -0.083 -0.202 a 6.499 6.499 0 0 0 2.88 -3.622 c 0.064 0.01 0.176 0.03 0.213 0.038 c 0.075 -0.05 0.144 -0.114 0.28 -0.104 c 0.266 0.039 0.54 0.138 0.87 0.256 c 0.154 0.06 0.277 0.128 0.448 0.173 c 0.036 0.01 0.088 0.019 0.13 0.028 l 0.009 0.003 l 0.007 0.001 c 0.297 0.064 0.584 -0.098 0.645 -0.365 c 0.06 -0.266 -0.128 -0.537 -0.423 -0.608 z M 16.4 9.701 l -1.95 1.746 v 0.005 a 0.44 0.44 0 0 0 0.173 0.757 l 0.003 0.01 l 2.526 0.728 a 5.199 5.199 0 0 0 -0.108 -1.674 A 5.208 5.208 0 0 0 16.4 9.7 z m -4.013 5.325 a 0.437 0.437 0 0 0 -0.404 -0.232 a 0.44 0.44 0 0 0 -0.372 0.233 h -0.002 l -1.268 2.292 a 5.164 5.164 0 0 0 3.326 0.003 l -1.27 -2.296 h -0.01 z m 1.888 -1.293 a 0.44 0.44 0 0 0 -0.27 0.036 a 0.44 0.44 0 0 0 -0.214 0.572 l -0.003 0.004 l 1.01 2.438 a 5.15 5.15 0 0 0 2.081 -2.615 l -2.6 -0.44 l -0.004 0.005 z" stroke-linecap="round"/>
</g>
<g transform="matrix(9.9333 0 0 9.9333 614.165 724.165)" id="259666">
<g style="" vector-effect="non-scaling-stroke">
		<g transform="matrix(1 0 0 1 35.202 10.616)" id="Layer_1" clip-path="url(#CLIPPATH_9)">
<clipPath id="CLIPPATH_9">
</clipPath>
<path style="stroke: none; stroke-width: 1; stroke-dasharray: none; stroke-linecap: butt; stroke-dashoffset: 0; stroke-linejoin: miter; stroke-miterlimit: 4; is-custom-font: none; font-file-url: none; fill: rgb(157,81,37); fill-rule: nonzero; opacity: 1;" transform=" translate(-85.202, -60.616)" d="M 85.245 58.712 v 2.615 c 0 0.4 -0.029 0.799 -0.086 1.193 v -2.613 C 85.216 59.511 85.245 59.112 85.245 58.712" stroke-linecap="round"/>
</g>
		<g transform="matrix(1 0 0 1 34.986 11.9565)" id="Layer_1" clip-path="url(#CLIPPATH_10)">
<clipPath id="CLIPPATH_10">
</clipPath>
<path style="stroke: none; stroke-width: 1; stroke-dasharray: none; stroke-linecap: butt; stroke-dashoffset: 0; stroke-linejoin: miter; stroke-miterlimit: 4; is-custom-font: none; font-file-url: none; fill: rgb(157,81,37); fill-rule: nonzero; opacity: 1;" transform=" translate(-84.986, -61.9565)" d="M 85.159 59.907 v 2.613 c -0.074 0.5 -0.189 0.996 -0.346 1.486 v -2.613 C 84.97 60.901 85.085 60.407 85.159 59.907" stroke-linecap="round"/>
</g>
		<g transform="matrix(1 0 0 1 34.407 13.631)" id="Layer_1" clip-path="url(#CLIPPATH_11)">
<clipPath id="CLIPPATH_11">
</clipPath>
<path style="stroke: none; stroke-width: 1; stroke-dasharray: none; stroke-linecap: butt; stroke-dashoffset: 0; stroke-linejoin: miter; stroke-miterlimit: 4; is-custom-font: none; font-file-url: none; fill: rgb(157,81,37); fill-rule: nonzero; opacity: 1;" transform=" translate(-84.407, -63.631)" d="M 84.813 61.394 v 2.613 c -0.205 0.633 -0.477 1.258 -0.812 1.861 v -2.613 C 84.337 62.649 84.608 62.026 84.813 61.394" stroke-linecap="round"/>
</g>
		<g transform="matrix(1 0 0 1 27.495 18.1865)" id="Layer_1" clip-path="url(#CLIPPATH_12)">
<clipPath id="CLIPPATH_12">
</clipPath>
<path style="stroke: none; stroke-width: 1; stroke-dasharray: none; stroke-linecap: butt; stroke-dashoffset: 0; stroke-linejoin: miter; stroke-miterlimit: 4; is-custom-font: none; font-file-url: none; fill: rgb(157,81,37); fill-rule: nonzero; opacity: 1;" transform=" translate(-77.495, -68.1865)" d="M 84.001 63.255 v 2.613 c -2.23 4.035 -7.223 7.25 -13.012 7.25 v -2.613 C 76.778 70.505 81.771 67.288 84.001 63.255" stroke-linecap="round"/>
</g>
		<g transform="matrix(1 0 0 1 -0.0135 21.564)" id="Layer_1">
<polygon style="stroke: none; stroke-width: 1; stroke-dasharray: none; stroke-linecap: butt; stroke-dashoffset: 0; stroke-linejoin: miter; stroke-miterlimit: 4; is-custom-font: none; font-file-url: none; fill: rgb(157,81,37); fill-rule: nonzero; opacity: 1;" points="21.7085,-1.512 21.0025,1.554 -20.9775,1.554 -21.7085,-1.554 "/>
</g>
		<g transform="matrix(1 0 0 1 -28.118 15.915)" id="Layer_1" clip-path="url(#CLIPPATH_13)">
<clipPath id="CLIPPATH_13">
</clipPath>
<path style="stroke: none; stroke-width: 1; stroke-dasharray: none; stroke-linecap: butt; stroke-dashoffset: 0; stroke-linejoin: miter; stroke-miterlimit: 4; is-custom-font: none; font-file-url: none; fill: rgb(157,81,37); fill-rule: nonzero; opacity: 1;" transform=" translate(-21.882, -65.915)" d="M 29.009 70.505 v 2.613 c -7.875 0 -14.254 -5.928 -14.254 -11.791 v -2.615 C 14.755 64.575 21.134 70.505 29.009 70.505" stroke-linecap="round"/>
</g>
		<g transform="matrix(1 0 0 1 0 -1.3065)" id="Layer_1">
<path style="stroke: none; stroke-width: 1; stroke-dasharray: none; stroke-linecap: butt; stroke-dashoffset: 0; stroke-linejoin: miter; stroke-miterlimit: 4; is-custom-font: none; font-file-url: none; fill: rgb(245,133,53); fill-rule: nonzero; opacity: 1;" transform=" translate(-50, -48.6935)" d="M 41.88 26.882 c 7.318 0 13.617 4.352 16.443 10.578 c 1.465 -0.998 3.246 -1.592 5.17 -1.592 c 4.945 0 8.963 3.896 9.113 8.775 c 7.113 0.594 12.639 7.439 12.639 12.885 v 1.184 c 0 5.863 -6.395 11.793 -14.256 11.793 h -41.98 c -7.875 0 -14.254 -5.93 -14.254 -11.793 v -1.184 c 0 -4.502 3.801 -10.717 9.137 -12.238 c -0.016 -0.174 -0.027 -0.35 -0.027 -0.525 C 23.864 34.886 31.929 26.882 41.88 26.882 z" stroke-linecap="round"/>
</g>
		<g transform="matrix(1 0 0 1 -16.0615 6.0355)" id="Layer_1">
<path style="stroke: none; stroke-width: 1; stroke-dasharray: none; stroke-linecap: butt; stroke-dashoffset: 0; stroke-linejoin: miter; stroke-miterlimit: 4; is-custom-font: none; font-file-url: none; fill: rgb(255,255,255); fill-rule: nonzero; opacity: 1;" transform=" translate(-33.9385, -56.0355)" d="M 32.419 47.812 l -4.707 16.447 h 2.76 l 1.064 -4.029 h 4.848 l 1.023 4.029 h 2.758 l -4.359 -16.447 H 32.419 z M 32.026 58.134 l 1.973 -8.111 h 0.043 l 1.902 8.111 H 32.026 z" stroke-linecap="round"/>
</g>
		<g transform="matrix(1 0 0 1 -1.6805 6.0355)" id="Layer_1">
<polygon style="stroke: none; stroke-width: 1; stroke-dasharray: none; stroke-linecap: butt; stroke-dashoffset: 0; stroke-linejoin: miter; stroke-miterlimit: 4; is-custom-font: none; font-file-url: none; fill: rgb(255,255,255); fill-rule: nonzero; opacity: 1;" points="3.6755,4.6275 3.6285,4.6275 1.4025,-8.2235 -1.3815,-8.2235 -3.5585,4.5595 -3.6075,4.5595 -5.7835,-8.2235 -8.4515,-8.2235 -5.2545,8.2235 -2.1915,8.2235 -0.0805,-4.1675 -0.0315,-4.1675 2.1015,8.2235 5.1595,8.2235 8.4515,-8.2235 5.8295,-8.2235 "/>
</g>
		<g transform="matrix(1 0 0 1 13.394 6.035)" id="Layer_1">
<path style="stroke: none; stroke-width: 1; stroke-dasharray: none; stroke-linecap: butt; stroke-dashoffset: 0; stroke-linejoin: miter; stroke-miterlimit: 4; is-custom-font: none; font-file-url: none; fill: rgb(255,255,255); fill-rule: nonzero; opacity: 1;" transform=" translate(-63.394, -56.035)" d="M 65.282 55.276 l -1.785 -0.648 c -1.762 -0.666 -2.48 -1.381 -2.48 -2.783 c 0 -1.754 1.09 -2.375 2.223 -2.375 c 1.646 0 2.32 0.875 2.32 2.375 v 0.346 h 2.646 v -0.373 c 0 -1.701 -0.441 -4.328 -4.684 -4.328 c -3.107 0 -5.148 1.66 -5.148 4.658 c 0 2.346 1.041 3.59 3.453 4.508 l 1.809 0.627 c 1.488 0.434 2.367 1.197 2.367 2.922 c 0 1.221 -0.838 2.398 -2.506 2.398 c -1.828 0 -2.711 -1.016 -2.711 -3.018 v -0.418 H 58.14 v 0.393 c 0 2.305 0.93 5.02 5.031 5.02 c 3.34 0 5.477 -1.449 5.477 -4.947 C 68.647 57.372 67.624 56.103 65.282 55.276 z" stroke-linecap="round"/>
</g>
</g>
</g>
</svg>