<?xml version="1.0" standalone="no"?>
<svg viewBox="0 0 200 200" xmlns="http://www.w3.org/2000/svg">
  <path fill="#FA4D56" d="M21,-39.9C30.7,-30.8,44.3,-32.1,50.6,-27.2C56.8,-22.3,55.7,-11.1,57.4,1C59.1,13.1,63.7,26.3,59.3,34.5C55,42.8,41.8,46.1,30.4,46.1C19,46.1,9.5,42.7,1,41.1C-7.6,39.4,-15.2,39.4,-17.5,34.2C-19.8,29,-16.8,18.5,-16.7,11.9C-16.6,5.3,-19.3,2.7,-19.9,-0.4C-20.6,-3.4,-19.1,-6.8,-20.7,-16C-22.4,-25.3,-27.2,-40.4,-24.3,-53.4C-21.4,-66.4,-10.7,-77.3,-2.5,-72.9C5.7,-68.6,11.4,-49.1,21,-39.9Z" transform="translate(100 100)" />
</svg>
