<svg id="visual" viewBox="0 0 900 900" width="900" height="900" xmlns="http://www.w3.org/2000/svg" xmlns:xlink="http://www.w3.org/1999/xlink" version="1.1"><rect x="0" y="0" width="900" height="900" fill="#FFFFFF"></rect><defs><linearGradient id="grad1_0" x1="0%" y1="0%" x2="100%" y2="100%"><stop offset="30%" stop-color="#fd8567" stop-opacity="1"></stop><stop offset="70%" stop-color="#fd8567" stop-opacity="1"></stop></linearGradient></defs><defs><linearGradient id="grad1_1" x1="0%" y1="0%" x2="100%" y2="100%"><stop offset="30%" stop-color="#fd8567" stop-opacity="1"></stop><stop offset="70%" stop-color="#ff977c" stop-opacity="1"></stop></linearGradient></defs><defs><linearGradient id="grad1_2" x1="0%" y1="0%" x2="100%" y2="100%"><stop offset="30%" stop-color="#ffa991" stop-opacity="1"></stop><stop offset="70%" stop-color="#ff977c" stop-opacity="1"></stop></linearGradient></defs><defs><linearGradient id="grad1_3" x1="0%" y1="0%" x2="100%" y2="100%"><stop offset="30%" stop-color="#ffa991" stop-opacity="1"></stop><stop offset="70%" stop-color="#ffbaa6" stop-opacity="1"></stop></linearGradient></defs><defs><linearGradient id="grad1_4" x1="0%" y1="0%" x2="100%" y2="100%"><stop offset="30%" stop-color="#ffcbbc" stop-opacity="1"></stop><stop offset="70%" stop-color="#ffbaa6" stop-opacity="1"></stop></linearGradient></defs><defs><linearGradient id="grad1_5" x1="0%" y1="0%" x2="100%" y2="100%"><stop offset="30%" stop-color="#ffcbbc" stop-opacity="1"></stop><stop offset="70%" stop-color="#ffddd2" stop-opacity="1"></stop></linearGradient></defs><defs><linearGradient id="grad1_6" x1="0%" y1="0%" x2="100%" y2="100%"><stop offset="30%" stop-color="#ffeee8" stop-opacity="1"></stop><stop offset="70%" stop-color="#ffddd2" stop-opacity="1"></stop></linearGradient></defs><defs><linearGradient id="grad1_7" x1="0%" y1="0%" x2="100%" y2="100%"><stop offset="30%" stop-color="#ffeee8" stop-opacity="1"></stop><stop offset="70%" stop-color="#ffffff" stop-opacity="1"></stop></linearGradient></defs><defs><linearGradient id="grad2_0" x1="0%" y1="0%" x2="100%" y2="100%"><stop offset="30%" stop-color="#fd8567" stop-opacity="1"></stop><stop offset="70%" stop-color="#fd8567" stop-opacity="1"></stop></linearGradient></defs><defs><linearGradient id="grad2_1" x1="0%" y1="0%" x2="100%" y2="100%"><stop offset="30%" stop-color="#ff977c" stop-opacity="1"></stop><stop offset="70%" stop-color="#fd8567" stop-opacity="1"></stop></linearGradient></defs><defs><linearGradient id="grad2_2" x1="0%" y1="0%" x2="100%" y2="100%"><stop offset="30%" stop-color="#ff977c" stop-opacity="1"></stop><stop offset="70%" stop-color="#ffa991" stop-opacity="1"></stop></linearGradient></defs><defs><linearGradient id="grad2_3" x1="0%" y1="0%" x2="100%" y2="100%"><stop offset="30%" stop-color="#ffbaa6" stop-opacity="1"></stop><stop offset="70%" stop-color="#ffa991" stop-opacity="1"></stop></linearGradient></defs><defs><linearGradient id="grad2_4" x1="0%" y1="0%" x2="100%" y2="100%"><stop offset="30%" stop-color="#ffbaa6" stop-opacity="1"></stop><stop offset="70%" stop-color="#ffcbbc" stop-opacity="1"></stop></linearGradient></defs><defs><linearGradient id="grad2_5" x1="0%" y1="0%" x2="100%" y2="100%"><stop offset="30%" stop-color="#ffddd2" stop-opacity="1"></stop><stop offset="70%" stop-color="#ffcbbc" stop-opacity="1"></stop></linearGradient></defs><defs><linearGradient id="grad2_6" x1="0%" y1="0%" x2="100%" y2="100%"><stop offset="30%" stop-color="#ffddd2" stop-opacity="1"></stop><stop offset="70%" stop-color="#ffeee8" stop-opacity="1"></stop></linearGradient></defs><defs><linearGradient id="grad2_7" x1="0%" y1="0%" x2="100%" y2="100%"><stop offset="30%" stop-color="#ffffff" stop-opacity="1"></stop><stop offset="70%" stop-color="#ffeee8" stop-opacity="1"></stop></linearGradient></defs><g transform="translate(900, 0)"><path d="M0 445.5C-78.5 434.1 -156.9 422.8 -222.7 385.8C-288.5 348.8 -341.7 286.1 -376.7 217.5C-411.7 148.9 -428.6 74.5 -445.5 0L0 0Z" fill="#fff6f4"></path><path d="M0 389.8C-68.7 379.9 -137.3 370 -194.9 337.6C-252.5 305.2 -299 250.3 -329.6 190.3C-360.3 130.3 -375 65.2 -389.8 0L0 0Z" fill="#ffe5dd"></path><path d="M0 334.1C-58.8 325.6 -117.7 317.1 -167.1 289.3C-216.4 261.6 -256.3 214.6 -282.5 163.1C-308.8 111.7 -321.5 55.8 -334.1 0L0 0Z" fill="#ffd4c7"></path><path d="M0 278.4C-49 271.3 -98.1 264.3 -139.2 241.1C-180.3 218 -213.6 178.8 -235.5 135.9C-257.3 93.1 -267.9 46.5 -278.4 0L0 0Z" fill="#ffc3b1"></path><path d="M0 222.7C-39.2 217.1 -78.5 211.4 -111.4 192.9C-144.3 174.4 -170.9 143 -188.4 108.8C-205.9 74.5 -214.3 37.2 -222.7 0L0 0Z" fill="#ffb19b"></path><path d="M0 167.1C-29.4 162.8 -58.8 158.6 -83.5 144.7C-108.2 130.8 -128.1 107.3 -141.3 81.6C-154.4 55.8 -160.7 27.9 -167.1 0L0 0Z" fill="#ffa086"></path><path d="M0 111.4C-19.6 108.5 -39.2 105.7 -55.7 96.4C-72.1 87.2 -85.4 71.5 -94.2 54.4C-102.9 37.2 -107.2 18.6 -111.4 0L0 0Z" fill="#ff8e71"></path><path d="M0 55.7C-9.8 54.3 -19.6 52.9 -27.8 48.2C-36.1 43.6 -42.7 35.8 -47.1 27.2C-51.5 18.6 -53.6 9.3 -55.7 0L0 0Z" fill="#fd8567"></path></g><g transform="translate(0, 900)"><path d="M0 -445.5C78.5 -434.1 156.9 -422.8 222.7 -385.8C288.5 -348.8 341.7 -286.1 376.7 -217.5C411.7 -148.9 428.6 -74.5 445.5 0L0 0Z" fill="#fff6f4"></path><path d="M0 -389.8C68.7 -379.9 137.3 -370 194.9 -337.6C252.5 -305.2 299 -250.3 329.6 -190.3C360.3 -130.3 375 -65.2 389.8 0L0 0Z" fill="#ffe5dd"></path><path d="M0 -334.1C58.8 -325.6 117.7 -317.1 167.1 -289.3C216.4 -261.6 256.3 -214.6 282.5 -163.1C308.8 -111.7 321.5 -55.8 334.1 0L0 0Z" fill="#ffd4c7"></path><path d="M0 -278.4C49 -271.3 98.1 -264.3 139.2 -241.1C180.3 -218 213.6 -178.8 235.5 -135.9C257.3 -93.1 267.9 -46.5 278.4 0L0 0Z" fill="#ffc3b1"></path><path d="M0 -222.7C39.2 -217.1 78.5 -211.4 111.4 -192.9C144.3 -174.4 170.9 -143 188.4 -108.8C205.9 -74.5 214.3 -37.2 222.7 0L0 0Z" fill="#ffb19b"></path><path d="M0 -167.1C29.4 -162.8 58.8 -158.6 83.5 -144.7C108.2 -130.8 128.1 -107.3 141.3 -81.6C154.4 -55.8 160.7 -27.9 167.1 0L0 0Z" fill="#ffa086"></path><path d="M0 -111.4C19.6 -108.5 39.2 -105.7 55.7 -96.4C72.1 -87.2 85.4 -71.5 94.2 -54.4C102.9 -37.2 107.2 -18.6 111.4 0L0 0Z" fill="#ff8e71"></path><path d="M0 -55.7C9.8 -54.3 19.6 -52.9 27.8 -48.2C36.1 -43.6 42.7 -35.8 47.1 -27.2C51.5 -18.6 53.6 -9.3 55.7 0L0 0Z" fill="#fd8567"></path></g></svg>