<svg width="100%" height="100%" id="svg" viewBox="0 0 1440 400" xmlns="http://www.w3.org/2000/svg" class="transition duration-300 ease-in-out delay-150"><defs><linearGradient id="gradient" x1="43%" y1="0%" x2="57%" y2="100%"><stop offset="5%" stop-color="#fd8567"></stop><stop offset="95%" stop-color="#272b34"></stop></linearGradient></defs><path d="M 0,400 C 0,400 0,80 0,80 C 110.25,87.78571428571428 220.5,95.57142857142857 328,96 C 435.5,96.42857142857143 540.2500000000001,89.5 675,78 C 809.7499999999999,66.5 974.5,50.42857142857143 1107,50 C 1239.5,49.57142857142857 1339.75,64.78571428571428 1440,80 C 1440,80 1440,400 1440,400 Z" stroke="none" stroke-width="0" fill="url(#gradient)" fill-opacity="0.265" class="transition-all duration-300 ease-in-out delay-150 path-0"></path><defs><linearGradient id="gradient" x1="43%" y1="0%" x2="57%" y2="100%"><stop offset="5%" stop-color="#fd8567"></stop><stop offset="95%" stop-color="#272b34"></stop></linearGradient></defs><path d="M 0,400 C 0,400 0,160 0,160 C 133.53571428571428,165.07142857142856 267.07142857142856,170.14285714285714 375,163 C 482.92857142857144,155.85714285714286 565.2499999999999,136.49999999999997 690,139 C 814.7500000000001,141.50000000000003 981.9285714285716,165.85714285714286 1114,173 C 1246.0714285714284,180.14285714285714 1343.0357142857142,170.07142857142856 1440,160 C 1440,160 1440,400 1440,400 Z" stroke="none" stroke-width="0" fill="url(#gradient)" fill-opacity="0.4" class="transition-all duration-300 ease-in-out delay-150 path-1"></path><defs><linearGradient id="gradient" x1="43%" y1="0%" x2="57%" y2="100%"><stop offset="5%" stop-color="#fd8567"></stop><stop offset="95%" stop-color="#272b34"></stop></linearGradient></defs><path d="M 0,400 C 0,400 0,240 0,240 C 101.39285714285714,226.67857142857144 202.78571428571428,213.35714285714286 338,215 C 473.2142857142857,216.64285714285714 642.2499999999999,233.25000000000003 764,238 C 885.7500000000001,242.74999999999997 960.2142857142858,235.64285714285717 1065,234 C 1169.7857142857142,232.35714285714283 1304.892857142857,236.17857142857142 1440,240 C 1440,240 1440,400 1440,400 Z" stroke="none" stroke-width="0" fill="url(#gradient)" fill-opacity="0.53" class="transition-all duration-300 ease-in-out delay-150 path-2"></path><defs><linearGradient id="gradient" x1="43%" y1="0%" x2="57%" y2="100%"><stop offset="5%" stop-color="#fd8567"></stop><stop offset="95%" stop-color="#272b34"></stop></linearGradient></defs><path d="M 0,400 C 0,400 0,320 0,320 C 120.35714285714286,307.82142857142856 240.71428571428572,295.64285714285717 369,297 C 497.2857142857143,298.35714285714283 633.4999999999999,313.24999999999994 742,318 C 850.5000000000001,322.75000000000006 931.2857142857142,317.35714285714283 1043,316 C 1154.7142857142858,314.64285714285717 1297.357142857143,317.32142857142856 1440,320 C 1440,320 1440,400 1440,400 Z" stroke="none" stroke-width="0" fill="url(#gradient)" fill-opacity="1" class="transition-all duration-300 ease-in-out delay-150 path-3"></path></svg>