<svg width="100%" height="100%" id="svg" viewBox="0 0 1440 400" xmlns="http://www.w3.org/2000/svg" class="transition duration-300 ease-in-out delay-150"><defs><linearGradient id="gradient" x1="7%" y1="25%" x2="93%" y2="75%"><stop offset="5%" stop-color="#fd8567"></stop><stop offset="95%" stop-color="#abb8c3"></stop></linearGradient></defs><path d="M 0,400 C 0,400 0,80 0,80 C 181.33333333333331,83.19999999999999 362.66666666666663,86.39999999999999 523,80 C 683.3333333333334,73.60000000000001 822.6666666666667,57.6 972,56 C 1121.3333333333333,54.4 1280.6666666666665,67.2 1440,80 C 1440,80 1440,400 1440,400 Z" stroke="none" stroke-width="0" fill="url(#gradient)" fill-opacity="0.265" class="transition-all duration-300 ease-in-out delay-150 path-0"></path><defs><linearGradient id="gradient" x1="7%" y1="25%" x2="93%" y2="75%"><stop offset="5%" stop-color="#fd8567"></stop><stop offset="95%" stop-color="#abb8c3"></stop></linearGradient></defs><path d="M 0,400 C 0,400 0,160 0,160 C 134.93333333333334,168.53333333333333 269.8666666666667,177.06666666666666 452,178 C 634.1333333333333,178.93333333333334 863.4666666666667,172.26666666666665 1036,168 C 1208.5333333333333,163.73333333333335 1324.2666666666667,161.86666666666667 1440,160 C 1440,160 1440,400 1440,400 Z" stroke="none" stroke-width="0" fill="url(#gradient)" fill-opacity="0.4" class="transition-all duration-300 ease-in-out delay-150 path-1"></path><defs><linearGradient id="gradient" x1="7%" y1="25%" x2="93%" y2="75%"><stop offset="5%" stop-color="#fd8567"></stop><stop offset="95%" stop-color="#abb8c3"></stop></linearGradient></defs><path d="M 0,400 C 0,400 0,240 0,240 C 162,234.66666666666666 324,229.33333333333331 487,235 C 650,240.66666666666669 814,257.33333333333337 973,260 C 1132,262.66666666666663 1286,251.33333333333331 1440,240 C 1440,240 1440,400 1440,400 Z" stroke="none" stroke-width="0" fill="url(#gradient)" fill-opacity="0.53" class="transition-all duration-300 ease-in-out delay-150 path-2"></path><defs><linearGradient id="gradient" x1="7%" y1="25%" x2="93%" y2="75%"><stop offset="5%" stop-color="#fd8567"></stop><stop offset="95%" stop-color="#abb8c3"></stop></linearGradient></defs><path d="M 0,400 C 0,400 0,320 0,320 C 199.59999999999997,319.6 399.19999999999993,319.2 536,320 C 672.8000000000001,320.8 746.8,322.8 887,323 C 1027.2,323.2 1233.6,321.6 1440,320 C 1440,320 1440,400 1440,400 Z" stroke="none" stroke-width="0" fill="url(#gradient)" fill-opacity="1" class="transition-all duration-300 ease-in-out delay-150 path-3"></path></svg>