<svg width="100%" height="100%" id="svg" viewBox="0 0 1440 500" xmlns="http://www.w3.org/2000/svg" class="transition duration-300 ease-in-out delay-150"><defs><linearGradient id="gradient" x1="7%" y1="25%" x2="93%" y2="75%"><stop offset="5%" stop-color="#fd8567"></stop><stop offset="95%" stop-color="#abb8c3"></stop></linearGradient></defs><path d="M 0,500 C 0,500 0,166 0,166 C 154.28571428571428,156.46428571428572 308.57142857142856,146.92857142857144 417,137 C 525.4285714285714,127.07142857142857 588.0000000000001,116.75 685,110 C 781.9999999999999,103.25 913.4285714285713,100.07142857142858 1045,110 C 1176.5714285714287,119.92857142857142 1308.2857142857142,142.96428571428572 1440,166 C 1440,166 1440,500 1440,500 Z" stroke="none" stroke-width="0" fill="url(#gradient)" fill-opacity="0.53" class="transition-all duration-300 ease-in-out delay-150 path-0" transform="rotate(-180 720 250)"></path><defs><linearGradient id="gradient" x1="7%" y1="25%" x2="93%" y2="75%"><stop offset="5%" stop-color="#fd8567"></stop><stop offset="95%" stop-color="#abb8c3"></stop></linearGradient></defs><path d="M 0,500 C 0,500 0,333 0,333 C 126.82142857142858,346.1071428571429 253.64285714285717,359.2142857142857 369,366 C 484.35714285714283,372.7857142857143 588.2499999999999,373.25 699,357 C 809.7500000000001,340.75 927.3571428571429,307.7857142857143 1052,301 C 1176.642857142857,294.2142857142857 1308.3214285714284,313.6071428571429 1440,333 C 1440,333 1440,500 1440,500 Z" stroke="none" stroke-width="0" fill="url(#gradient)" fill-opacity="1" class="transition-all duration-300 ease-in-out delay-150 path-1" transform="rotate(-180 720 250)"></path></svg>